<svg width="32" height="32" viewBox="0 0 32 32" fill="none" xmlns="http://www.w3.org/2000/svg">
<circle cx="16" cy="16" r="16" fill="#ED017F" fill-opacity="0.1"/>
<path fill-rule="evenodd" clip-rule="evenodd" d="M18.7779 8.66797H13.2224C12.2849 8.66797 11.8335 9.32211 11.8335 10.3346V21.668C11.8335 22.6805 12.2849 23.3346 13.2224 23.3346H18.7779C19.7155 23.3346 20.1668 22.6805 20.1668 21.668V10.3346C20.1668 9.32211 19.7155 8.66797 18.7779 8.66797ZM12.7594 20.668V10.668H19.2409V20.668H12.7594Z" fill="#ED017F"/>
<path opacity="0.3" fill-rule="evenodd" clip-rule="evenodd" d="M12.6665 10.668V20.668H19.3332V10.668H12.6665Z" fill="#ED017F"/>
<path fill-rule="evenodd" clip-rule="evenodd" d="M16.0002 22.6654C16.3684 22.6654 16.6668 22.3669 16.6668 21.9987C16.6668 21.6305 16.3684 21.332 16.0002 21.332C15.632 21.332 15.3335 21.6305 15.3335 21.9987C15.3335 22.3669 15.632 22.6654 16.0002 22.6654Z" fill="black"/>
</svg>
