<svg width="32" height="32" viewBox="0 0 32 32" fill="none" xmlns="http://www.w3.org/2000/svg">
<circle cx="16" cy="16" r="16" fill="#ED017F" fill-opacity="0.1"/>
<path opacity="0.3" fill-rule="evenodd" clip-rule="evenodd" d="M12.1706 20.6187L11.3191 21.6447C9.65112 20.2603 8.6665 18.2095 8.6665 15.9993C8.6665 13.7921 9.64838 11.7438 11.3124 10.3594L12.1651 11.3844C10.8025 12.5181 9.99984 14.1924 9.99984 15.9993C9.99984 17.8086 10.8047 19.485 12.1706 20.6187ZM19.829 20.6187L20.6806 21.6447C22.3486 20.2603 23.3332 18.2095 23.3332 15.9993C23.3332 13.7921 22.3513 11.7438 20.6873 10.3594L19.8345 11.3844C21.1972 12.5181 21.9998 14.1924 21.9998 15.9993C21.9998 17.8086 21.195 19.485 19.829 20.6187ZM18.1188 18.5725L18.9671 19.6012C20.0351 18.7206 20.6665 17.4108 20.6665 15.9993C20.6665 14.5923 20.0392 13.2864 18.9772 12.4057L18.1261 13.432C18.8858 14.062 19.3332 14.9934 19.3332 15.9993C19.3332 17.0084 18.8828 17.9425 18.1188 18.5725ZM13.0326 19.6012L13.8808 18.5725C13.1168 17.9425 12.6665 17.0084 12.6665 15.9993C12.6665 14.9934 13.1139 14.062 13.8736 13.432L13.0224 12.4057C11.9604 13.2864 11.3332 14.5923 11.3332 15.9993C11.3332 17.4108 11.9646 18.7206 13.0326 19.6012Z" fill="#ED017F"/>
<path fill-rule="evenodd" clip-rule="evenodd" d="M16.6668 17.5267C17.2555 17.2695 17.6668 16.6821 17.6668 15.9987C17.6668 15.0782 16.9206 14.332 16.0002 14.332C15.0797 14.332 14.3335 15.0782 14.3335 15.9987C14.3335 16.6821 14.7449 17.2695 15.3335 17.5267V21.332C15.3335 21.7002 15.632 21.9987 16.0002 21.9987C16.3684 21.9987 16.6668 21.7002 16.6668 21.332V17.5267Z" fill="#ED017F"/>
</svg>
