<svg width="32" height="32" viewBox="0 0 32 32" fill="none" xmlns="http://www.w3.org/2000/svg">
<circle cx="16" cy="16" r="16" fill="#ED017F" fill-opacity="0.1"/>
<path fill-rule="evenodd" clip-rule="evenodd" d="M11.3333 17.3346C12.0697 17.3346 12.6667 16.7377 12.6667 16.0013C12.6667 15.2649 12.0697 14.668 11.3333 14.668C10.597 14.668 10 15.2649 10 16.0013C10 16.7377 10.597 17.3346 11.3333 17.3346Z" fill="#ED017F"/>
<path fill-rule="evenodd" clip-rule="evenodd" d="M15.9998 17.3346C16.7362 17.3346 17.3332 16.7377 17.3332 16.0013C17.3332 15.2649 16.7362 14.668 15.9998 14.668C15.2635 14.668 14.6665 15.2649 14.6665 16.0013C14.6665 16.7377 15.2635 17.3346 15.9998 17.3346Z" fill="#ED017F"/>
<path fill-rule="evenodd" clip-rule="evenodd" d="M20.6668 17.3346C21.4032 17.3346 22.0002 16.7377 22.0002 16.0013C22.0002 15.2649 21.4032 14.668 20.6668 14.668C19.9304 14.668 19.3335 15.2649 19.3335 16.0013C19.3335 16.7377 19.9304 17.3346 20.6668 17.3346Z" fill="#ED017F"/>
</svg>
