<svg width="32" height="32" viewBox="0 0 32 32" fill="none" xmlns="http://www.w3.org/2000/svg">
<circle cx="16" cy="16" r="16" fill="#ED017F" fill-opacity="0.1"/>
<path opacity="0.3" fill-rule="evenodd" clip-rule="evenodd" d="M15.9998 19.3346C18.9454 19.3346 21.3332 16.9468 21.3332 14.0013C21.3332 11.0558 18.9454 8.66797 15.9998 8.66797C13.0543 8.66797 10.6665 11.0558 10.6665 14.0013C10.6665 16.9468 13.0543 19.3346 15.9998 19.3346Z" fill="#ED017F"/>
<path opacity="0.3" fill-rule="evenodd" clip-rule="evenodd" d="M12.3589 14L15.0454 20.9083L15.9841 20.5433L16.9164 20.9116L19.647 14H12.3589ZM14.308 15.3333H17.6866L15.984 19.643L14.308 15.3333Z" fill="black"/>
<path opacity="0.3" d="M14.6665 22.668H17.3332C17.3332 23.4043 16.7362 24.0013 15.9998 24.0013C15.2635 24.0013 14.6665 23.4043 14.6665 22.668Z" fill="black"/>
<path fill-rule="evenodd" clip-rule="evenodd" d="M13.3335 19.3346C13.3335 18.9664 13.632 18.668 14.0002 18.668H18.0002C18.3684 18.668 18.6668 18.9664 18.6668 19.3346C18.6668 19.7028 18.3684 20.0013 18.0002 20.0013C18.3684 20.0013 18.6668 20.2998 18.6668 20.668C18.6668 21.0362 18.3684 21.3346 18.0002 21.3346C18.3684 21.3346 18.6668 21.6331 18.6668 22.0013C18.6668 22.3695 18.3684 22.668 18.0002 22.668H14.0002C13.632 22.668 13.3335 22.3695 13.3335 22.0013C13.3335 21.6331 13.632 21.3346 14.0002 21.3346C13.632 21.3346 13.3335 21.0362 13.3335 20.668C13.3335 20.2998 13.632 20.0013 14.0002 20.0013C13.632 20.0013 13.3335 19.7028 13.3335 19.3346Z" fill="#ED017F"/>
</svg>
