<svg width="32" height="32" viewBox="0 0 32 32" fill="none" xmlns="http://www.w3.org/2000/svg">
<circle cx="16" cy="16" r="16" fill="#ED017F" fill-opacity="0.1"/>
<path opacity="0.3" fill-rule="evenodd" clip-rule="evenodd" d="M22.2981 16.1104L23.6972 14.9492C21.8094 12.6747 19.0128 11.332 15.9989 11.332C12.9891 11.332 10.1959 12.671 8.30811 14.9401L9.70582 16.1029C11.2518 14.2447 13.535 13.1502 15.9989 13.1502C18.4661 13.1502 20.7522 14.2478 22.2981 16.1104ZM19.5079 18.4425L20.9106 17.2858C19.7097 15.8294 17.9237 14.9684 15.9989 14.9684C14.0803 14.9684 12.2995 15.8238 11.0985 17.2719L12.498 18.4326C13.3572 17.3966 14.6272 16.7866 15.9989 16.7866C17.375 16.7866 18.6488 17.4007 19.5079 18.4425Z" fill="#ED017F"/>
<path fill-rule="evenodd" clip-rule="evenodd" d="M18.0795 19.5691L16.693 20.7453L15.9748 21.3327L15.289 20.7651L13.8701 19.6282C14.3839 18.987 15.1611 18.6055 15.9992 18.6055C16.8102 18.6055 17.5652 18.9628 18.0795 19.5691Z" fill="#ED017F"/>
</svg>
