<svg width="83" height="32" viewBox="0 0 83 32" fill="none" xmlns="http://www.w3.org/2000/svg">
<g clip-path="url(#clip0)">
<path fill-rule="evenodd" clip-rule="evenodd" d="M53.7742 22.2965L62.0608 12.5499C62.64 11.8598 62.9964 11.1698 64.823 11.1698C67.3625 11.1698 70.6593 10.6092 73.4215 10.0054C77.253 9.18598 80.4607 7.63342 83.0001 6.42588C82.2873 7.7628 77.4312 9.14286 74.9808 10.3935C77.1193 9.87601 77.5203 9.74663 79.6142 9.0566C78.0549 10.4367 76.2283 10.3073 73.6888 11.5148C75.56 11.1267 75.6491 11.1267 77.4757 10.566C76.3619 11.7305 74.2234 11.558 72.575 12.4636C74.268 12.2049 74.1343 12.2911 75.6936 11.8598C74.5798 12.5499 72.7087 13.6712 69.2336 15.0512L62.64 16.5175C62.1499 16.6038 60.947 16.7332 59.9223 17.6819C58.6303 18.9326 56.8483 20.3989 56.3136 20.7439C55.6899 21.2183 54.9771 22.0377 53.7742 22.2965ZM53.2396 21.9084L60.7688 12.5067C61.348 11.7736 61.4816 10.8248 60.0114 10.3073C58.0066 9.57412 55.8236 9.40162 53.8633 8.62534C49.8091 7.1159 47.4478 3.49326 45.0421 0C44.2401 1.50943 47.2696 3.40701 47.9825 5.34771C46.8241 4.22642 45.7549 3.06199 44.8193 1.76819C44.6856 3.53639 47.3587 4.65768 48.1607 6.59838C47.0469 5.6496 45.9776 4.70081 45.0866 3.66577C44.7747 5.13208 47.9379 6.51213 48.3389 7.84906C47.2696 7.15903 46.2449 6.38275 45.4876 5.52022C45.6658 6.51213 46.735 7.89218 48.9181 9.57412C51.012 11.4717 54.4425 13.8437 54.5316 17.0782C54.5316 18.0701 54.0861 18.8464 53.596 19.7089C53.2841 20.2695 53.0614 21.0458 53.2396 21.9084Z" fill="#949599"/>
<path fill-rule="evenodd" clip-rule="evenodd" d="M1.11393 28.2481H0.98027L1.15848 27.6443C1.7822 27.2993 2.36138 27.1268 2.94055 27.1268C4.14345 27.2131 4.36621 27.9894 4.188 28.6363L3.65338 31.2239C3.60883 31.5257 3.83159 31.612 4.188 31.4826L4.14345 31.6551C3.29696 32.0433 2.85145 31.8276 2.896 31.267C2.27227 31.7845 1.7822 31.957 1.24758 31.957C0.401097 31.957 -0.0889726 31.3964 0.000130988 30.7926C0.178338 29.6282 1.42579 29.4125 2.31682 29.3263C3.29696 29.1969 3.38607 28.9381 3.43062 28.4638C3.51972 28.0756 3.25241 27.6012 2.45048 27.5581C1.96041 27.515 1.47034 27.7306 1.11393 28.2481ZM3.20786 29.4557L2.896 30.8357C2.53958 31.267 2.04951 31.5257 1.6931 31.4826C1.11393 31.4826 0.891167 31.267 0.846615 30.8788C0.846615 30.4476 1.06937 30.0163 1.604 29.8007C2.00496 29.6282 2.53958 29.585 3.20786 29.4557ZM17.3308 28.2912H17.1971L17.3308 27.6875C17.9545 27.3425 18.5782 27.1699 19.1574 27.1699C20.3157 27.2562 20.5385 28.0325 20.4049 28.6794L19.8702 31.267C19.8257 31.5689 20.0484 31.6551 20.4049 31.5257L20.3603 31.6983C19.5138 32.0001 19.0683 31.8276 19.1129 31.3101C18.4891 31.8276 17.9991 32.0001 17.4199 32.0001C16.5734 32.0001 16.1279 31.4395 16.217 30.8357C16.3952 29.6713 17.6426 29.4557 18.5337 29.3694C19.4693 29.24 19.5584 28.9813 19.6475 28.5069C19.692 28.1187 19.4693 27.6443 18.6673 27.6012C18.1773 27.5581 17.6426 27.7737 17.3308 28.2912ZM19.3802 29.4988L19.1129 30.8788C18.7564 31.267 18.2218 31.5257 17.91 31.5257C17.2862 31.4826 17.0635 31.267 17.0635 30.8788C17.0189 30.4476 17.2417 30.0594 17.7763 29.8007C18.1773 29.6713 18.7564 29.6282 19.3802 29.4988ZM6.14828 27.1699C6.41559 27.2562 6.6829 27.2562 6.95021 27.1699L6.772 28.1187C7.35118 27.3856 7.84125 27.0406 8.59863 27.1699L8.28676 27.9894C7.75214 27.6443 6.99476 27.9462 6.63835 28.7225L6.01462 31.8276H5.16814L6.14828 27.1699ZM25.1273 27.1699H25.9738L25.7956 28.0756C26.3302 27.3856 26.8649 27.0406 27.5777 27.1699L27.2658 27.9894C26.7758 27.6012 26.0184 27.9031 25.662 28.7225L25.0382 31.8276H24.1918L25.1273 27.1699ZM41.8343 27.2131H42.6807L42.458 28.1187C42.859 27.2562 44.8638 26.3505 45.443 28.0756C46.7795 26.4368 48.8289 27.1268 48.517 28.4638L47.8488 31.8276H47.0914L47.6706 28.8519C47.8488 27.7306 47.1359 27.6443 46.735 27.6443C46.1112 27.6012 45.5321 28.2912 45.443 28.7225L44.8192 31.8276H44.0173L44.641 28.6363C44.7747 27.2562 42.8144 27.2993 42.3689 28.7656L41.7452 31.8276H40.9432L41.8343 27.2131ZM9.66787 27.1699C9.93518 27.2562 10.2025 27.2131 10.5144 27.1699L9.53421 31.8708H8.73228L9.66787 27.1699ZM10.5589 25.0136C10.8262 25.0136 11.0044 25.2724 10.9153 25.5311C10.8708 25.833 10.6035 26.0055 10.3361 26.0055C10.0243 26.0055 9.84608 25.7468 9.93518 25.488C9.97973 25.2292 10.247 25.0136 10.5589 25.0136ZM22.5433 27.1699H23.3898L22.4097 31.8708H21.6077L22.5433 27.1699ZM23.4344 25.0136C23.7017 25.0136 23.8799 25.2724 23.8353 25.5311C23.7462 25.7899 23.4789 26.0055 23.2116 26.0055C22.9443 26.0055 22.7661 25.7468 22.8106 25.488C22.8552 25.2292 23.1671 25.0136 23.4344 25.0136ZM28.3796 30.7495C28.6915 30.7495 28.9142 31.0514 28.8251 31.3532C28.736 31.6983 28.4687 31.9139 28.1123 31.9139C27.8004 31.9139 27.5777 31.612 27.6668 31.3101C27.7559 30.9651 28.0678 30.7495 28.3796 30.7495ZM12.7865 24.4961H13.633L12.6974 29.24C12.9647 29.1969 13.232 29.0675 13.4993 28.8519L15.4151 27.1699H16.3061L13.633 29.1538L15.5042 31.8276H14.4795L13.0093 29.7144C12.8756 29.4988 12.6974 29.4557 12.6083 29.585L12.1628 31.8276H11.3163L12.7865 24.4961ZM38.582 27.0837C39.9185 27.0837 40.5868 28.0325 40.3195 29.4988C40.0522 30.9651 38.6711 31.9139 37.3345 31.9139C35.998 31.9139 35.0178 30.922 35.3743 29.585C35.9089 27.7306 37.2454 27.1268 38.582 27.0837ZM38.4483 27.3856C39.2503 27.3856 39.6512 28.205 39.3839 29.4988C39.1166 30.8357 38.181 31.6551 37.3345 31.6551C36.5326 31.6551 35.9534 30.7495 36.2653 29.585C36.7108 27.9462 37.6018 27.3856 38.4483 27.3856ZM34.6169 28.2481L35.0624 27.5581C34.6614 27.2562 34.1714 27.0837 33.6367 27.0837C32.3002 27.0837 30.8745 27.6443 30.4736 29.585C30.1617 30.9651 31.0973 31.9139 32.3893 31.9139C33.013 31.9139 33.6367 31.8276 34.1714 31.4395L34.305 30.922C34.0826 31.1349 33.8179 31.3019 33.5269 31.4131C33.2359 31.5243 32.9247 31.5773 32.612 31.5689C31.7656 31.5257 31.0527 30.7495 31.32 29.585C31.6319 28.0325 32.6566 27.4718 33.5031 27.4287C33.904 27.4287 34.3496 27.6875 34.6169 28.2481Z" fill="#8C0D3A"/>
<path fill-rule="evenodd" clip-rule="evenodd" d="M0.133789 21.9937H2.896L5.07904 17.5516H10.4253L11.3163 21.9937H15.7715L11.7173 6.12305H8.82139L0.133789 21.9937ZM5.83642 16.0422L8.77684 10.6082L10.0688 16.0422H5.83642ZM19.8257 10.6082H23.568L23.3007 13.0664C24.4145 11.1689 25.5729 10.3063 26.8203 10.6082L26.3302 14.2309C24.6373 13.5408 23.4789 14.0583 22.9889 15.8265L22.276 21.9937H18.3109L19.8257 10.6082ZM29.7607 10.6082H33.3694L31.6765 21.9937H28.0678L29.7607 10.6082ZM37.4682 7.15809H40.9432L39.7403 15.4815H40.6314L44.9529 10.6082H48.4279L43.6163 15.4815L47.0023 21.9937H42.3689L40.4086 17.0341H39.473L38.7602 21.9937H35.2406L37.4682 7.15809Z" fill="#0D3F84"/>
</g>
<defs>
<clipPath id="clip0">
<rect width="83" height="32" fill="white"/>
</clipPath>
</defs>
</svg>
