<svg width="32" height="32" viewBox="0 0 32 32" fill="none" xmlns="http://www.w3.org/2000/svg">
<path opacity="0.3" fill-rule="evenodd" clip-rule="evenodd" d="M16 22.6667C21.891 22.6667 26.6667 17.8911 26.6667 12C26.6667 6.109 21.891 1.33337 16 1.33337C10.109 1.33337 5.33334 6.109 5.33334 12C5.33334 17.8911 10.109 22.6667 16 22.6667Z" fill="#F36923"/>
<path opacity="0.3" fill-rule="evenodd" clip-rule="evenodd" d="M8.71754 12L14.0907 25.8166L15.9679 25.0865L17.8327 25.8232L23.2937 12H8.71754ZM12.6158 14.6667H19.373L15.9678 23.2861L12.6158 14.6667Z" fill="black"/>
<path opacity="0.3" d="M13.3333 29.3334H18.6667V30C18.6667 31.1046 17.7712 32 16.6667 32H15.3333C14.2288 32 13.3333 31.1046 13.3333 30V29.3334Z" fill="black"/>
<path fill-rule="evenodd" clip-rule="evenodd" d="M10.6667 22.6667C10.6667 21.9303 11.2636 21.3334 12 21.3334H20C20.7364 21.3334 21.3333 21.9303 21.3333 22.6667C21.3333 23.4031 20.7364 24 20 24C20.7364 24 21.3333 24.597 21.3333 25.3334C21.3333 26.0698 20.7364 26.6667 20 26.6667C20.7364 26.6667 21.3333 27.2637 21.3333 28C21.3333 28.7364 20.7364 29.3334 20 29.3334H12C11.2636 29.3334 10.6667 28.7364 10.6667 28C10.6667 27.2637 11.2636 26.6667 12 26.6667C11.2636 26.6667 10.6667 26.0698 10.6667 25.3334C10.6667 24.597 11.2636 24 12 24C11.2636 24 10.6667 23.4031 10.6667 22.6667Z" fill="#F36923"/>
</svg>
