<svg width="17" height="16" viewBox="0 0 17 16" fill="none" xmlns="http://www.w3.org/2000/svg">
<path fill-rule="evenodd" clip-rule="evenodd" d="M9.76454 3.21281H15.4979V3.21093C15.9597 3.21071 16.3958 3.42248 16.6806 3.78513C16.9653 4.14778 17.0669 4.62096 16.9561 5.06815L15.9314 9.20756C15.725 10.0442 14.9728 10.6323 14.1091 10.6323H6.49718C5.62878 10.6328 4.87348 10.0388 4.67114 9.19633L3.01025 2.2842C2.96958 2.11641 2.81921 1.9981 2.64617 1.99775H0.750685C0.336093 1.99775 0 1.66247 0 1.24888C0 0.835284 0.336093 0.5 0.750685 0.5H2.64429C3.51269 0.499547 4.26799 1.0935 4.47033 1.93597L6.13122 8.8481C6.17189 9.01589 6.32227 9.1342 6.49531 9.13455H14.1091C14.2816 9.13442 14.4318 9.01702 14.4732 8.84998L15.4979 4.71056H9.76454C9.34995 4.71056 9.01385 4.37528 9.01385 3.96168C9.01385 3.54809 9.34995 3.21281 9.76454 3.21281ZM15.8526 13.3563C15.8526 12.1724 14.8905 11.2127 13.7038 11.2127C12.517 11.2127 11.5549 12.1724 11.5549 13.3563C11.5549 14.5403 12.517 15.5 13.7038 15.5C14.8897 15.4979 15.8505 14.5394 15.8526 13.3563ZM13.0544 13.3563C13.0544 12.9996 13.3443 12.7104 13.7019 12.7104C14.0595 12.7104 14.3494 12.9996 14.3494 13.3563C14.3494 13.7131 14.0595 14.0022 13.7019 14.0022C13.3455 14.0002 13.0573 13.7119 13.0563 13.3563H13.0544ZM6.41836 15.5C7.60513 15.5 8.5672 14.5403 8.5672 13.3563C8.5672 12.1724 7.60513 11.2127 6.41836 11.2127C5.23159 11.2127 4.26952 12.1724 4.26952 13.3563C4.27159 14.5394 5.23245 15.4979 6.41836 15.5ZM7.06583 13.3545C7.06583 12.9977 6.77595 12.7086 6.41836 12.7086V12.7104C6.06193 12.7115 5.77295 12.9989 5.77089 13.3545C5.77089 13.7112 6.06077 14.0004 6.41836 14.0004C6.77595 14.0004 7.06583 13.7112 7.06583 13.3545Z" fill="black"/>
</svg>
