<svg width="20" height="20" viewBox="0 0 20 20" fill="none" xmlns="http://www.w3.org/2000/svg">
<path d="M20.0001 10.2299C20.0001 9.55015 19.9438 8.86672 19.8239 8.198H10.2015V12.0487H15.7118C15.4831 13.2906 14.7484 14.3892 13.6726 15.0873V17.5859H16.96C18.8905 15.8443 20.0001 13.2722 20.0001 10.2299Z" fill="#4285F4"/>
<path d="M10.2014 20C12.9528 20 15.2731 19.1145 16.9636 17.586L13.6762 15.0874C12.7616 15.6974 11.5808 16.0428 10.2051 16.0428C7.54371 16.0428 5.28713 14.2828 4.47745 11.9165H1.08508V14.4922C2.81688 17.8689 6.3442 20 10.2014 20Z" fill="#34A853"/>
<path d="M4.47381 11.9164C4.04648 10.6745 4.04648 9.3297 4.47381 8.08778V5.51208H1.08518C-0.361728 8.33764 -0.361728 11.6666 1.08518 14.4921L4.47381 11.9164Z" fill="#FBBC04"/>
<path d="M10.2014 3.95792C11.6558 3.93587 13.0615 4.47232 14.1148 5.45704L17.0274 2.60209C15.1831 0.904557 12.7353 -0.0287207 10.2014 0.000673866C6.3442 0.000673866 2.81688 2.13178 1.08508 5.51215L4.47371 8.08785C5.27963 5.71792 7.53996 3.95792 10.2014 3.95792Z" fill="#EA4335"/>
</svg>
