<svg width="32" height="32" viewBox="0 0 32 32" fill="none" xmlns="http://www.w3.org/2000/svg">
<path fill-rule="evenodd" clip-rule="evenodd" d="M2.66666 17.3334H29.3333V24.6667C29.3333 25.7713 28.4379 26.6667 27.3333 26.6667H4.66665C3.56209 26.6667 2.66666 25.7713 2.66666 24.6667V17.3334ZM24.6667 24C25.7712 24 26.6667 23.1046 26.6667 22C26.6667 20.8955 25.7712 20 24.6667 20C23.5621 20 22.6667 20.8955 22.6667 22C22.6667 23.1046 23.5621 24 24.6667 24ZM20 22C20 23.1046 19.1046 24 18 24C16.8954 24 16 23.1046 16 22C16 20.8955 16.8954 20 18 20C19.1046 20 20 20.8955 20 22Z" fill="#F36923"/>
<path opacity="0.3" d="M2.66666 11.6666C2.66666 11.1143 3.11437 10.6666 3.66666 10.6666H28.3333C28.8856 10.6666 29.3333 11.1143 29.3333 11.6666V17.3333H2.66666V11.6666Z" fill="black"/>
</svg>
