<svg width="10" height="13" viewBox="0 0 10 13" fill="none" xmlns="http://www.w3.org/2000/svg">
<path fill-rule="evenodd" clip-rule="evenodd" d="M3.591 8.20912V9.86812H4.851C7.392 9.86812 9.387 7.91512 9.387 5.39512C9.387 2.87512 7.392 0.922119 4.851 0.922119C2.31 0.922119 0.335999 2.87512 0.335999 5.39512H2.121C2.121 3.79912 3.234 2.58112 4.851 2.58112C6.447 2.58112 7.602 3.79912 7.602 5.39512C7.602 6.99112 6.447 8.20912 4.851 8.20912H3.591ZM5 11.0001C4.44772 11.0001 4 11.4478 4 12.0001C4 12.5524 4.44772 13.0001 5 13.0001C5.55228 13.0001 6 12.5524 6 12.0001C6 11.4478 5.55228 11.0001 5 11.0001Z" fill="black"/>
</svg>
