<svg fill="none" height="13" viewBox="0 0 13 13" width="13"
    xmlns="http://www.w3.org/2000/svg" aria-label="konga-prime-tag" class="" name="konga-prime-tag">
    <g clip-path="url(#clip0)">
        <path clip-rule="evenodd" d="M1.64704 1.41284C1.4428 1.41284 1.24693 1.49398 1.10251 1.6384C0.958087 1.78282 0.876953 1.97869 0.876953 2.18293V5.71456C0.876997 5.91878 0.95816 6.11463 1.10259 6.25901L6.49321 11.6496C6.63763 11.794 6.83347 11.8751 7.03767 11.8751C7.24187 11.8751 7.43771 11.794 7.58212 11.6496L11.1137 8.11801C11.2581 7.9736 11.3392 7.77776 11.3392 7.57356C11.3392 7.36936 11.2581 7.17352 11.1137 7.0291L5.72312 1.63848C5.57874 1.49405 5.38289 1.41289 5.17867 1.41284H1.64704ZM4.7274 4.10815C4.7274 4.41451 4.6057 4.70833 4.38907 4.92496C4.17244 5.14159 3.87863 5.26329 3.57227 5.26329C3.2659 5.26329 2.97209 5.14159 2.75546 4.92496C2.53883 4.70833 2.41713 4.41451 2.41713 4.10815C2.41713 3.80179 2.53883 3.50798 2.75546 3.29135C2.97209 3.07472 3.2659 2.95302 3.57227 2.95302C3.87863 2.95302 4.17244 3.07472 4.38907 3.29135C4.6057 3.50798 4.7274 3.80179 4.7274 4.10815Z" fill="white" fill-rule="evenodd"></path>
    </g>
    <defs>
        <clipPath id="clip0">
            <rect fill="white" height="12.3214" transform="translate(0.107422 0.642822)" width="12.3214"></rect>
        </clipPath>
    </defs>
</svg>