<svg width="32" height="32" viewBox="0 0 32 32" fill="none" xmlns="http://www.w3.org/2000/svg">
<path opacity="0.3" fill-rule="evenodd" clip-rule="evenodd" d="M8.3416 25.2389L6.63853 27.2909C3.30258 24.5222 1.33334 20.4205 1.33334 16C1.33334 11.5856 3.2971 7.489 6.62514 4.72021L8.33063 6.77019C5.60525 9.03759 4.00001 12.3863 4.00001 16C4.00001 19.6187 5.60974 22.9715 8.3416 25.2389ZM23.6584 25.2389L25.3615 27.2909C28.6974 24.5222 30.6667 20.4205 30.6667 16C30.6667 11.5856 28.7029 7.489 25.3749 4.72021L23.6694 6.77019C26.3948 9.03759 28 12.3863 28 16C28 19.6187 26.3903 22.9715 23.6584 25.2389ZM20.238 21.1465L21.9345 23.2039C24.0705 21.4426 25.3333 18.8231 25.3333 16C25.3333 13.1861 24.0788 10.5743 21.9548 8.81282L20.2525 10.8654C21.772 12.1256 22.6667 13.9883 22.6667 16C22.6667 18.0183 21.766 19.8865 20.238 21.1465ZM10.0655 23.2039L11.762 21.1465C10.234 19.8865 9.33334 18.0183 9.33334 16C9.33334 13.9883 10.2281 12.1256 11.7475 10.8654L10.0452 8.81282C7.92122 10.5743 6.66668 13.1861 6.66668 16C6.66668 18.8231 7.92953 21.4426 10.0655 23.2039Z" fill="#F36923"/>
<path fill-rule="evenodd" clip-rule="evenodd" d="M17.3333 19.0559C18.5106 18.5416 19.3333 17.3668 19.3333 16C19.3333 14.159 17.8409 12.6666 16 12.6666C14.159 12.6666 12.6667 14.159 12.6667 16C12.6667 17.3668 13.4894 18.5416 14.6667 19.0559V27C14.6667 27.5522 15.1144 28 15.6667 28H16.3333C16.8856 28 17.3333 27.5522 17.3333 27V19.0559Z" fill="#F36923"/>
</svg>
