<svg width="15" height="15" viewBox="0 0 15 15" fill="none" xmlns="http://www.w3.org/2000/svg">
<path fill-rule="evenodd" clip-rule="evenodd" d="M0 6.21584C0 2.79356 2.79974 0 6.22165 0C9.63707 0 12.4368 2.79356 12.4368 6.21584C12.4368 7.5316 12.022 8.75014 11.3156 9.76126L14.6792 13.1252C15.1069 13.553 15.1069 14.2465 14.6792 14.6743C14.2515 15.1086 13.5515 15.1086 13.1238 14.6743L9.76021 11.3168C8.75567 12.0169 7.53727 12.4382 6.22165 12.4382C2.79974 12.4382 0 9.63811 0 6.21584ZM10.2398 6.21584C10.2398 3.97969 8.45107 2.19077 6.22165 2.19077C3.98574 2.19077 2.19702 3.97969 2.19702 6.21584C2.19702 8.45198 3.98574 10.2409 6.22165 10.2409C8.45107 10.2409 10.2398 8.45198 10.2398 6.21584Z" fill="white"/>
</svg>
