<svg width="32" height="32" viewBox="0 0 32 32" fill="none" xmlns="http://www.w3.org/2000/svg">
<path fill-rule="evenodd" clip-rule="evenodd" d="M2.66667 7.66663C2.66667 7.11434 3.11439 6.66663 3.66667 6.66663H28.3333C28.8856 6.66663 29.3333 7.11434 29.3333 7.66663V23C29.3333 23.5522 28.8856 24 28.3333 24H3.66667C3.11439 24 2.66667 23.5522 2.66667 23V7.66663ZM12.8427 13.4213V18.6666H11.2467V13.4213H9.38001V12.0586H14.7093V13.4213H12.8427ZM18.3173 18.6666H19.9133L22.4613 12.0586H20.6973L19.176 16.744H19.1387L17.608 12.0586H15.816L18.3173 18.6666Z" fill="#F36923"/>
<rect opacity="0.3" x="4" y="25.3334" width="24" height="1.33333" rx="0.666666" fill="black"/>
</svg>
