<svg width="20" height="20" viewBox="0 0 20 20" fill="none" xmlns="http://www.w3.org/2000/svg">
<path fill-rule="evenodd" clip-rule="evenodd" d="M5.83337 6.66667V8.33333H5.00004C4.07957 8.33333 3.33337 9.07952 3.33337 10V15C3.33337 15.9205 4.07957 16.6667 5.00004 16.6667H15C15.9205 16.6667 16.6667 15.9205 16.6667 15V10C16.6667 9.07952 15.9205 8.33333 15 8.33333H14.1667V6.66667C14.1667 4.36548 12.3012 2.5 10 2.5C7.69885 2.5 5.83337 4.36548 5.83337 6.66667ZM7.50004 6.66667C7.50004 5.28595 8.61933 4.16667 10 4.16667C11.3808 4.16667 12.5 5.28595 12.5 6.66667V8.33333H7.50004V6.66667Z" fill="#F36923"/>
</svg>
