<svg width="24" height="24" viewBox="0 0 24 24" fill="none" xmlns="http://www.w3.org/2000/svg">
<path d="M12.0051 14.2199C14.9651 14.2199 17.3851 11.7999 17.3851 8.81994C17.3851 5.83994 14.9651 3.41994 12.0051 3.41994C9.04511 3.41994 6.62512 5.83994 6.62512 8.81994C6.62512 11.7999 9.04511 14.2199 12.0051 14.2199ZM12.0051 4.99992C14.0851 4.99992 15.7851 6.69992 15.7851 8.79992C15.7851 10.8999 14.0851 12.5999 12.0051 12.5999C9.92512 12.5999 8.22512 10.8999 8.22512 8.79992C8.22512 6.69992 9.92512 4.99992 12.0051 4.99992ZM14.5051 14.7399C14.2451 14.6599 13.9451 14.7199 13.7451 14.8999L12.0051 16.3799L10.2651 14.8999C10.0451 14.7199 9.76511 14.6599 9.50512 14.7399C8.38511 15.0999 2.80511 17.0199 2.80511 19.7999C2.80511 20.2399 3.16511 20.5999 3.60511 20.5999H20.4051C20.8451 20.5999 21.2051 20.2399 21.2051 19.7999C21.2051 17.0199 15.6251 15.0999 14.5051 14.7399ZM4.82512 18.9999C5.70512 18.0599 7.82511 17.0199 9.58511 16.4199L11.4851 18.0399C11.7851 18.2999 12.2251 18.2999 12.5251 18.0399L14.4251 16.4199C16.1851 17.0399 18.3051 18.0799 19.1851 18.9999H4.82512Z" fill="black"/>
</svg>
