<svg width="149" height="40" viewBox="0 0 149 40" fill="none" xmlns="http://www.w3.org/2000/svg">
<path fill-rule="evenodd" clip-rule="evenodd" d="M38.2924 32.4585H30.9741V3.14648H38.2924V18.0103H41.6351L46.2436 10.2518H53.997L47.727 20.9395L53.997 32.4585H46.2436L41.4373 23.6708H38.2924V32.4585Z" fill="#ED017F"/>
<path fill-rule="evenodd" clip-rule="evenodd" d="M76.6042 26.1842C76.6042 28.2821 76.0108 29.9249 74.824 31.1124C73.6373 32.2999 71.9956 32.8937 69.8991 32.8937H60.2666C58.1701 32.8937 56.5284 32.2999 55.3416 31.1124C54.1549 29.9249 53.5615 28.2821 53.5615 26.1842V16.5454C53.5615 14.4475 54.1549 12.8047 55.3416 11.6172C56.5284 10.4297 58.1701 9.83594 60.2666 9.83594H69.8991C71.9956 9.83594 73.6373 10.4297 74.824 11.6172C76.0108 12.8047 76.6042 14.4475 76.6042 16.5454V26.1842ZM69.2662 17.1785C69.2662 16.0701 68.7124 15.4961 67.5849 15.4961H62.5611C61.4534 15.4961 60.8798 16.0503 60.8798 17.1785V25.5505C60.8798 26.6589 61.4336 27.2328 62.5611 27.2328H67.5849C68.6926 27.2328 69.2662 26.6786 69.2662 25.5505V17.1785Z" fill="#ED017F"/>
<path fill-rule="evenodd" clip-rule="evenodd" d="M91.0433 15.9118C89.5599 15.9118 87.8985 16.1889 86.0194 16.7431V32.458H78.7012V10.2711H85.1887L85.6041 12.3691C86.9095 11.4982 88.2545 10.8649 89.639 10.469C91.0235 10.0732 92.1905 9.85547 93.1399 9.85547H95.0189C96.9177 9.85547 98.4407 10.4294 99.5879 11.5774C100.735 12.7253 101.309 14.2493 101.309 16.1493V32.4778H93.9904V17.3962C93.9904 16.9806 93.852 16.6244 93.575 16.3473C93.2981 16.0702 92.9421 15.9316 92.5268 15.9316H91.0433V15.9118Z" fill="#ED017F"/>
<path fill-rule="evenodd" clip-rule="evenodd" d="M117.824 30.7961C115.114 31.3503 112.741 31.6274 110.704 31.6274H109.24C107.341 31.6274 105.818 31.0534 104.671 29.9055C103.524 28.7575 102.95 27.2335 102.95 25.3335V16.9615C102.95 14.8635 103.544 13.2208 104.73 12.0332C105.917 10.8457 107.559 10.252 109.655 10.252H125.142V33.7055C125.142 35.6056 124.569 37.1296 123.422 38.2775C122.274 39.4254 120.751 39.9994 118.853 39.9994C114.462 39.9994 109.596 39.7223 104.196 39.1681V33.7253C109.517 34.141 113.572 34.3587 116.341 34.3587C116.756 34.3587 117.112 34.2201 117.389 33.943C117.666 33.666 117.804 33.3097 117.804 32.8941V30.7961H117.824ZM112.8 25.9665C114.561 25.9665 116.242 25.8279 117.824 25.5508V15.9121H111.969C110.862 15.9121 110.288 16.4663 110.288 17.5944V24.5018C110.288 24.9175 110.427 25.2737 110.704 25.5508C110.981 25.8279 111.337 25.9665 111.752 25.9665H112.8Z" fill="#ED017F"/>
<path fill-rule="evenodd" clip-rule="evenodd" d="M128.723 10.6867C133.826 10.1326 138.434 9.85547 142.528 9.85547C144.427 9.85547 145.95 10.4294 147.097 11.5774C148.245 12.7253 148.818 14.2493 148.818 16.1493V32.4778H142.331L141.915 30.3798C140.61 31.2507 139.265 31.884 137.88 32.2799C136.496 32.6757 135.329 32.8934 134.379 32.8934H132.916C131.017 32.8934 129.494 32.3194 128.347 31.1715C127.2 30.0236 126.626 28.4996 126.626 26.5995V24.7193C126.626 22.8193 127.2 21.2953 128.347 20.1473C129.494 18.9994 131.017 18.4254 132.916 18.4254H141.5V16.7431C141.5 16.3275 141.361 15.9712 141.084 15.6941C140.808 15.417 140.452 15.2785 140.036 15.2785C138.217 15.2785 136.219 15.3577 134.023 15.5358C131.828 15.6941 130.068 15.8327 128.723 15.9118V10.6867ZM136.456 27.0151C137.94 27.0151 139.601 26.738 141.48 26.1838V23.6702H135.408C134.992 23.6702 134.636 23.8088 134.36 24.0858C134.083 24.3629 133.944 24.7192 133.944 25.1348V25.5505C133.944 25.9661 134.083 26.3223 134.36 26.5994C134.636 26.8765 134.992 27.0151 135.408 27.0151H136.456Z" fill="#ED017F"/>
<path fill-rule="evenodd" clip-rule="evenodd" d="M27.9874 4.67092C24.8623 1.56357 20.9856 0 16.3178 0C11.6697 0 7.77318 1.56357 4.66787 4.67092C1.54277 7.79807 0 11.6773 0 16.3482C0 20.9796 1.56255 24.8588 4.66787 28.0058C7.79296 31.1329 11.6697 32.6965 16.3178 32.6965C20.9658 32.6965 24.8623 31.1329 27.9874 28.0255C31.1125 24.8984 32.6553 21.0192 32.6553 16.3482C32.6553 11.6773 31.0927 7.77828 27.9874 4.67092Z" fill="#F9A024"/>
<path fill-rule="evenodd" clip-rule="evenodd" d="M7.8521 10.806C8.46525 10.2914 9.15752 10.0539 9.98824 10.0341C10.819 10.0144 11.6695 10.1727 12.5002 10.5092C13.3309 10.8258 14.1616 11.3206 14.9528 11.8748L15.3286 11.5779C14.8341 10.6279 14.0627 9.85602 13.1529 9.26226C12.2233 8.6685 11.0959 8.33203 9.94868 8.33203C9.39487 8.33203 8.76194 8.43099 8.18835 8.68829C7.61475 8.94558 7.12027 9.34143 6.74447 9.79664C6.36867 10.2519 6.13132 10.7862 5.97309 11.3206C5.83463 11.855 5.75552 12.3894 5.81485 12.9436L6.28955 13.003C6.72469 12.1123 7.23895 11.3206 7.8521 10.806Z" fill="#ED017F"/>
<path fill-rule="evenodd" clip-rule="evenodd" d="M18.4536 9.28235C19.1854 8.76775 19.9766 8.4115 20.7875 8.25316C21.6183 8.07503 22.3303 8.1542 23.0423 8.51046C23.7544 8.86671 24.4269 9.53964 25.04 10.2917L25.495 10.1334C25.4356 9.57923 25.2378 9.08443 24.9807 8.58963C24.7038 8.11462 24.3478 7.63961 23.8731 7.28335C23.3984 6.9073 22.8248 6.65001 22.2116 6.53125C21.5985 6.4125 20.9655 6.45208 20.4315 6.59063C19.3041 6.84793 18.2954 7.44169 17.524 8.23337C16.7724 9.02505 16.1988 9.95528 15.9219 10.9845L16.357 11.1824C17.0295 10.4303 17.7218 9.77715 18.4536 9.28235Z" fill="#ED017F"/>
<path fill-rule="evenodd" clip-rule="evenodd" d="M25.9696 20.248C25.6333 21.0793 25.1191 21.8512 24.5455 22.4845C24.2488 22.821 23.9323 23.1179 23.5961 23.3752C23.2598 23.6523 22.9038 23.9096 22.5478 24.1273C21.0643 25.0179 19.3633 25.5325 17.603 25.8096C15.8822 26.0867 14.1021 26.0669 12.3813 25.6711C11.5308 25.4731 10.6803 25.1961 9.86937 24.8002C9.05843 24.4242 8.26727 23.9294 7.575 23.3554L7.31787 23.5731C7.85191 24.4044 8.58373 25.0575 9.3749 25.6513C10.1661 26.2252 11.0561 26.6805 12.0055 27.0169C13.8845 27.6899 15.9218 27.8086 17.8799 27.5117C19.7985 27.2148 21.7566 26.5617 23.3587 25.3346C24.9608 24.1273 26.1673 22.3064 26.3058 20.3272L25.9696 20.248Z" fill="#ED017F"/>
<path fill-rule="evenodd" clip-rule="evenodd" d="M15.9814 14.9829L16.6144 20.8018L16.9506 20.7622L16.3177 14.9434L15.9814 14.9829Z" fill="#ED017F"/>
</svg>
