<svg width="78" height="78" viewBox="0 0 78 78" fill="none" xmlns="http://www.w3.org/2000/svg">
<circle cx="39" cy="39" r="39" fill="#ED017F" fill-opacity="0.1"/>
<path fill-rule="evenodd" clip-rule="evenodd" d="M29 32.8462C29 31.8264 29.8264 31 30.8462 31H46.846C47.8658 31 48.6923 31.8264 48.6923 32.8462C48.6923 33.8661 47.8658 34.6925 46.846 34.6925H30.8462C29.8264 34.6923 29 33.8661 29 32.8462ZM46.8458 37.1539H30.8462C29.8264 37.1539 29 37.9803 29 39.0001C29 40.02 29.8264 40.8464 30.8462 40.8464H46.846C47.8656 40.8464 48.692 40.02 48.692 39.0001C48.692 37.9803 47.8656 37.1539 46.8458 37.1539ZM30.8462 43.3078H46.8458C47.8656 43.3078 48.6923 44.134 48.6923 45.1538C48.6923 46.1737 47.8658 47.0001 46.846 47.0001H30.8462C29.8264 47.0001 29 46.1737 29 45.1538C29 44.134 29.8264 43.3078 30.8462 43.3078Z" fill="#ED017F"/>
</svg>
