<svg width="10" height="18" viewBox="0 0 10 18" fill="none" xmlns="http://www.w3.org/2000/svg">
<path d="M9.62343 0.00371534L7.22488 0C4.5302 0 2.78878 1.72485 2.78878 4.39451V6.42067H0.377148C0.168755 6.42067 0 6.58377 0 6.78496V9.72064C0 9.92182 0.168947 10.0847 0.377148 10.0847H2.78878V17.4924C2.78878 17.6936 2.95753 17.8565 3.16593 17.8565H6.31242C6.52081 17.8565 6.68957 17.6934 6.68957 17.4924V10.0847H9.50932C9.71772 10.0847 9.88647 9.92182 9.88647 9.72064L9.88763 6.78496C9.88763 6.68836 9.84779 6.59585 9.77718 6.52749C9.70656 6.45912 9.61034 6.42067 9.51029 6.42067H6.68957V4.70307C6.68957 3.87752 6.89334 3.45843 8.00727 3.45843L9.62304 3.45787C9.83125 3.45787 10 3.29477 10 3.09377V0.367819C10 0.167005 9.83144 0.00408688 9.62343 0.00371534Z" fill="#F26822"/>
</svg>
