<svg width="78" height="78" viewBox="0 0 78 78" fill="none" xmlns="http://www.w3.org/2000/svg">
<circle cx="39" cy="39" r="39" fill="#ED017F" fill-opacity="0.1"/>
<path fill-rule="evenodd" clip-rule="evenodd" d="M29 30C29 29.4477 29.4477 29 30 29H37C37.5523 29 38 29.4477 38 30V37C38 37.5523 37.5523 38 37 38H30C29.4477 38 29 37.5523 29 37V30ZM31 31V36H36V31H31Z" fill="#ED017F"/>
<path fill-rule="evenodd" clip-rule="evenodd" d="M40 30C40 29.4477 40.4477 29 41 29H48C48.5523 29 49 29.4477 49 30V37C49 37.5523 48.5523 38 48 38H41C40.4477 38 40 37.5523 40 37V30ZM42 31V36H47V31H42Z" fill="#ED017F"/>
<path fill-rule="evenodd" clip-rule="evenodd" d="M40 41C40 40.4477 40.4477 40 41 40H48C48.5523 40 49 40.4477 49 41V48C49 48.5523 48.5523 49 48 49H41C40.4477 49 40 48.5523 40 48V41ZM42 42V47H47V42H42Z" fill="#ED017F"/>
<path fill-rule="evenodd" clip-rule="evenodd" d="M29 41C29 40.4477 29.4477 40 30 40H37C37.5523 40 38 40.4477 38 41V48C38 48.5523 37.5523 49 37 49H30C29.4477 49 29 48.5523 29 48V41ZM31 42V47H36V42H31Z" fill="#ED017F"/>
</svg>
