<svg width="66" height="66" viewBox="0 0 66 66" fill="none" xmlns="http://www.w3.org/2000/svg">
<path d="M49.5 20.625H47.4375V6.105L53.5631 0L55.0069 1.44375L49.5 6.97125V20.625Z" fill="#C8C5CC"/>
<path d="M34.0312 25.7812L34.2375 27.8438L34.8975 34.0312V34.4231L35.6812 41.25L35.8875 43.2094L36.2175 46.3237L36.4237 48.3862L36.6506 50.4487L37.125 55.6875L37.3313 57.75L37.5375 59.8125L37.6613 60.9056L38.0737 64.9275V65.0306H58.6987L59.1319 60.9056L62.5969 27.9056L62.8237 25.8431L34.0312 25.7812ZM44.2406 60.8438H42.1781C42.2406 60.5034 42.2751 60.1585 42.2812 59.8125H44.3438C44.3376 60.1585 44.3031 60.5034 44.2406 60.8438ZM44.3438 46.4062H42.6525C42.4026 45.7475 42.2768 45.0483 42.2812 44.3438C42.2766 42.9557 42.75 41.6083 43.6219 40.5281C44.0945 41.745 44.3392 43.0384 44.3438 44.3438V46.4062Z" fill="#C5C5C5"/>
<path d="M60.8438 25.7812H34.0312L34.2375 27.8438H58.9875C59.2043 27.8457 59.4184 27.8926 59.6162 27.9815C59.814 28.0704 59.9912 28.1994 60.1366 28.3603C60.2819 28.5212 60.3924 28.7105 60.4608 28.9162C60.5293 29.122 60.5544 29.3397 60.5344 29.5556L57.1519 60.8438L56.7188 64.9688H58.7812L59.2144 60.8438L62.9062 25.7812H60.8438Z" fill="#C5C5C5"/>
<path d="M64.9688 21.6562H31.9688V25.7812H64.9688V21.6562Z" fill="#C5C5C5"/>
<path d="M64.9688 21.6562H62.9062V25.7812H64.9688V21.6562Z" fill="#C5C5C5"/>
<path d="M58.7812 17.5312H38.1562V21.6562H58.7812V17.5312Z" fill="#C5C5C5"/>
<path d="M58.7812 17.5312H56.7188V21.6562H58.7812V17.5312Z" fill="#C5C5C5"/>
<path d="M59.2139 60.8438L58.7808 64.9688H38.1558L38.1352 64.8656L37.7227 60.8438H59.2139Z" fill="#C5C5C5"/>
<path d="M57.1519 60.8438L56.7188 64.9688H58.7813L59.2144 60.8438H57.1519Z" fill="#C5C5C5"/>
<path d="M54.655 44.3441C54.655 45.9852 54.0031 47.559 52.8427 48.7194C51.6823 49.8797 50.1085 50.5316 48.4675 50.5316H47.8281H47.4362C46.8708 50.4518 46.3212 50.2848 45.8069 50.0366L45.085 49.6241V48.4691H43.8681C43.3213 47.8789 42.9127 47.1744 42.6719 46.4066H44.3631V44.3441C44.3585 43.0388 44.1138 41.7454 43.6412 40.5285C44.5686 39.3137 45.9272 38.5015 47.4362 38.2598H47.8281H48.4675C50.0908 38.2595 51.6492 38.8973 52.8067 40.0354C53.9641 41.1736 54.6279 42.7211 54.655 44.3441Z" fill="white"/>
<path d="M48.4688 38.1562C48.1226 38.1588 47.7773 38.1934 47.4375 38.2594C48.8593 38.5223 50.1441 39.2747 51.0689 40.3862C51.9937 41.4976 52.5 42.8979 52.5 44.3438C52.5 45.7896 51.9937 47.1899 51.0689 48.3013C50.1441 49.4128 48.8593 50.1652 47.4375 50.4281C47.7773 50.4941 48.1226 50.5287 48.4688 50.5312C50.1098 50.5312 51.6836 49.8794 52.844 48.719C54.0044 47.5586 54.6562 45.9848 54.6562 44.3438C54.6562 42.7027 54.0044 41.1289 52.844 39.9685C51.6836 38.8081 50.1098 38.1562 48.4688 38.1562Z" fill="#C5C5C5"/>
<path d="M44.3453 59.8125C44.3427 60.1792 44.3081 60.5449 44.2422 60.9056H42.1797C42.2456 60.5449 42.2802 60.1792 42.2828 59.8125H44.3453Z" fill="#C5C5C5"/>
<path d="M44.2406 60.8438C44.024 61.8281 43.5302 62.7298 42.8175 63.4425C41.8545 64.4077 40.5508 64.9558 39.1875 64.9688H10.3125C8.94997 64.9527 7.64777 64.4043 6.68424 63.4408C5.72072 62.4772 5.17231 61.175 5.15625 59.8125H42.2812C42.2786 60.1792 42.2441 60.5449 42.1781 60.9056L44.2406 60.8438Z" fill="#C5C5C5"/>
<path d="M45.0863 50.3867V57.7498H5.15625V50.5311H44.3438C44.5988 50.5369 44.852 50.4877 45.0863 50.3867Z" fill="#C5C5C5"/>
<path d="M44.385 55.6875H5.115C3.99869 55.6875 3.09375 56.5924 3.09375 57.7087V57.7294C3.09375 58.8457 3.99869 59.7506 5.115 59.7506H44.385C45.5013 59.7506 46.4062 58.8457 46.4062 57.7294V57.7087C46.4062 56.5924 45.5013 55.6875 44.385 55.6875Z" fill="#C5C5C5"/>
<path d="M45.0841 48.4689V49.5001C44.8091 49.3118 44.5473 49.1051 44.3003 48.8814C44.1352 48.7594 43.9892 48.6134 43.8672 48.4482L45.0841 48.4689Z" fill="#C5C5C5"/>
<path d="M45.0863 49.5001V50.3664C44.852 50.4673 44.5988 50.5166 44.3438 50.5107H5.15625V48.4482H43.8694C43.9914 48.6134 44.1374 48.7594 44.3025 48.8814C44.5494 49.1051 44.8113 49.3118 45.0863 49.5001Z" fill="#C5C5C5"/>
<path d="M45.8078 49.9331C45.5966 50.1267 45.352 50.2805 45.0859 50.3869V49.5L45.8078 49.9331Z" fill="#C5C5C5"/>
<path d="M46.4062 48.4689C46.4078 48.7404 46.3558 49.0095 46.2532 49.2607C46.1505 49.512 45.9993 49.7406 45.8081 49.9333L45.0863 49.5208V48.4689H5.15625V50.5314C4.60924 50.5314 4.08464 50.3141 3.69784 49.9274C3.31105 49.5406 3.09375 49.016 3.09375 48.4689C3.09375 47.9219 3.31105 47.3973 3.69784 47.0105C4.08464 46.6237 4.60924 46.4064 5.15625 46.4064H44.3438C44.8908 46.4064 45.4154 46.6237 45.8022 47.0105C46.189 47.3973 46.4062 47.9219 46.4062 48.4689ZM44.3438 44.3439V46.4064H42.6525C42.4026 45.7477 42.2768 45.0485 42.2812 44.3439C42.2766 42.9558 42.75 41.6085 43.6219 40.5283C44.0945 41.7452 44.3392 43.0386 44.3438 44.3439Z" fill="#C5C5C5"/>
<path d="M42.2812 44.3438C42.2768 45.0483 42.4026 45.7475 42.6525 46.4062H5.15625V44.3438C5.15625 41.6087 6.24274 38.9857 8.17671 37.0517C10.1107 35.1177 12.7337 34.0312 15.4688 34.0312H34.0312H34.8975C36.808 34.19 38.6365 34.8782 40.1776 36.0185C41.7187 37.1589 42.9114 38.7062 43.6219 40.4869C42.741 41.578 42.2671 42.9415 42.2812 44.3438Z" fill="#C5C5C5"/>
<path d="M13.4062 34.0312H31.9688C33.323 34.0312 34.664 34.298 35.9152 34.8162C37.1663 35.3345 38.3032 36.0941 39.2608 37.0517C40.2184 38.0093 40.978 39.1462 41.4963 40.3973C42.0145 41.6485 42.2812 42.9895 42.2812 44.3438V46.4062H3.09375V44.3438C3.09375 41.6087 4.18024 38.9857 6.11421 37.0517C8.04818 35.1177 10.6712 34.0312 13.4062 34.0312Z" fill="#C5C5C5"/>
<path d="M31.9688 34.0312H29.9062C32.6413 34.0312 35.2643 35.1177 37.1983 37.0517C39.1323 38.9857 40.2188 41.6087 40.2188 44.3438V46.4062H42.2812V44.3438C42.2812 42.9895 42.0145 41.6485 41.4963 40.3973C40.978 39.1462 40.2184 38.0093 39.2608 37.0517C38.3032 36.0941 37.1663 35.3345 35.9152 34.8162C34.664 34.298 33.323 34.0312 31.9688 34.0312Z" fill="#C5C5C5"/>
<path d="M43.0238 48.4688H3.09375V57.75H43.0238V48.4688Z" fill="#C5C5C5"/>
<path d="M43.0234 48.4688H40.9609V57.75H43.0234V48.4688Z" fill="#C5C5C5"/>
<path d="M42.2812 59.8125C42.2786 60.1792 42.2441 60.5449 42.1781 60.9056C42.0993 61.2385 41.9888 61.5631 41.8481 61.875C41.5992 62.4872 41.2271 63.0418 40.755 63.5044C40.0396 64.2243 39.129 64.7191 38.1356 64.9275C37.7818 64.993 37.4229 65.0275 37.0631 65.0306H8.25C7.23852 65.021 6.25164 64.7176 5.40943 64.1574C4.56723 63.5971 3.90602 62.8042 3.50625 61.875C3.23342 61.2216 3.0932 60.5205 3.09375 59.8125H42.2812Z" fill="#C5C5C5"/>
<path d="M40.2181 59.8125C40.2155 60.1792 40.181 60.5449 40.115 60.9056C39.8984 61.8899 39.4046 62.7917 38.6919 63.5044C37.9764 64.2243 37.0659 64.7191 36.0725 64.9275C35.7187 64.993 35.3598 65.0275 35 65.0306H37.0625C37.4223 65.0275 37.7812 64.993 38.135 64.9275C39.1284 64.7191 40.0389 64.2243 40.7544 63.5044C41.4671 62.7917 41.9609 61.8899 42.1775 60.9056C42.2435 60.5449 42.278 60.1792 42.2806 59.8125H40.2181Z" fill="#C5C5C5"/>
<path d="M42.3203 55.6875H40.2578C40.8048 55.6875 41.3294 55.9048 41.7162 56.2916C42.103 56.6784 42.3203 57.203 42.3203 57.75C42.3203 58.297 42.103 58.8216 41.7162 59.2084C41.3294 59.5952 40.8048 59.8125 40.2578 59.8125H42.3203C42.8673 59.8125 43.3919 59.5952 43.7787 59.2084C44.1655 58.8216 44.3828 58.297 44.3828 57.75C44.3828 57.203 44.1655 56.6784 43.7787 56.2916C43.3919 55.9048 42.8673 55.6875 42.3203 55.6875Z" fill="#C5C5C5"/>
<path d="M43.0238 48.6136V52.4498C42.7895 52.5508 42.5363 52.6 42.2812 52.5942H3.09375V48.4692H42.2812C42.5363 48.4634 42.7895 48.5126 43.0238 48.6136Z" fill="#C5C5C5"/>
<path d="M42.2812 46.4062H3.09375C1.95466 46.4062 1.03125 47.3297 1.03125 48.4688C1.03125 49.6078 1.95466 50.5312 3.09375 50.5312H42.2812C43.4203 50.5312 44.3438 49.6078 44.3438 48.4688C44.3438 47.3297 43.4203 46.4062 42.2812 46.4062Z" fill="#C5C5C5"/>
<path d="M42.2812 46.4062H40.2188C40.7658 46.4062 41.2904 46.6235 41.6772 47.0103C42.064 47.3971 42.2812 47.9217 42.2812 48.4688C42.2812 49.0158 42.064 49.5404 41.6772 49.9272C41.2904 50.314 40.7658 50.5312 40.2188 50.5312H42.2812C42.8283 50.5312 43.3529 50.314 43.7397 49.9272C44.1265 49.5404 44.3438 49.0158 44.3438 48.4688C44.3438 47.9217 44.1265 47.3971 43.7397 47.0103C43.3529 46.6235 42.8283 46.4062 42.2812 46.4062Z" fill="#C5C5C5"/>
<path d="M9.28125 41.25C9.85079 41.25 10.3125 40.7883 10.3125 40.2188C10.3125 39.6492 9.85079 39.1875 9.28125 39.1875C8.71171 39.1875 8.25 39.6492 8.25 40.2188C8.25 40.7883 8.71171 41.25 9.28125 41.25Z" fill="#C5C5C5"/>
<path d="M15.4688 39.1875C16.0383 39.1875 16.5 38.7258 16.5 38.1562C16.5 37.5867 16.0383 37.125 15.4688 37.125C14.8992 37.125 14.4375 37.5867 14.4375 38.1562C14.4375 38.7258 14.8992 39.1875 15.4688 39.1875Z" fill="#C5C5C5"/>
<path d="M21.6562 41.25C22.2258 41.25 22.6875 40.7883 22.6875 40.2188C22.6875 39.6492 22.2258 39.1875 21.6562 39.1875C21.0867 39.1875 20.625 39.6492 20.625 40.2188C20.625 40.7883 21.0867 41.25 21.6562 41.25Z" fill="#C5C5C5"/>
<path d="M31.9688 39.1875C32.5383 39.1875 33 38.7258 33 38.1562C33 37.5867 32.5383 37.125 31.9688 37.125C31.3992 37.125 30.9375 37.5867 30.9375 38.1562C30.9375 38.7258 31.3992 39.1875 31.9688 39.1875Z" fill="#C5C5C5"/>
<path d="M36.0938 43.3125C36.6633 43.3125 37.125 42.8508 37.125 42.2812C37.125 41.7117 36.6633 41.25 36.0938 41.25C35.5242 41.25 35.0625 41.7117 35.0625 42.2812C35.0625 42.8508 35.5242 43.3125 36.0938 43.3125Z" fill="#C5C5C5"/>
<path d="M29.9062 43.3125C30.4758 43.3125 30.9375 42.8508 30.9375 42.2812C30.9375 41.7117 30.4758 41.25 29.9062 41.25C29.3367 41.25 28.875 41.7117 28.875 42.2812C28.875 42.8508 29.3367 43.3125 29.9062 43.3125Z" fill="#C5C5C5"/>
<path d="M15.4688 43.3125C16.0383 43.3125 16.5 42.8508 16.5 42.2812C16.5 41.7117 16.0383 41.25 15.4688 41.25C14.8992 41.25 14.4375 41.7117 14.4375 42.2812C14.4375 42.8508 14.8992 43.3125 15.4688 43.3125Z" fill="#C5C5C5"/>
<path d="M42.2812 59.8125C42.2786 60.1792 42.2441 60.5449 42.1781 60.9056C42.0993 61.2385 41.9888 61.5631 41.8481 61.875H3.50625C3.23342 61.2216 3.0932 60.5205 3.09375 59.8125H42.2812Z" fill="#C5C5C5"/>
<path d="M42.3203 55.6875H3.13281C2.5858 55.6875 2.0612 55.9048 1.6744 56.2916C1.28761 56.6784 1.07031 57.203 1.07031 57.75C1.07031 58.297 1.28761 58.8216 1.6744 59.2084C2.0612 59.5952 2.5858 59.8125 3.13281 59.8125H42.3203C42.8673 59.8125 43.3919 59.5952 43.7787 59.2084C44.1655 58.8216 44.3828 58.297 44.3828 57.75C44.3828 57.203 44.1655 56.6784 43.7787 56.2916C43.3919 55.9048 42.8673 55.6875 42.3203 55.6875Z" fill="#C5C5C5"/>
<path d="M42.3203 55.6875H40.2578C40.8048 55.6875 41.3294 55.9048 41.7162 56.2916C42.103 56.6784 42.3203 57.203 42.3203 57.75C42.3203 58.297 42.103 58.8216 41.7162 59.2084C41.3294 59.5952 40.8048 59.8125 40.2578 59.8125H42.3203C42.8673 59.8125 43.3919 59.5952 43.7787 59.2084C44.1655 58.8216 44.3828 58.297 44.3828 57.75C44.3828 57.203 44.1655 56.6784 43.7787 56.2916C43.3919 55.9048 42.8673 55.6875 42.3203 55.6875Z" fill="#C5C5C5"/>
<path d="M20.4808 55.6875L17.1808 59.7506H11.6945L8.39453 55.6875H20.4808Z" fill="#C5C5C5"/>
<path d="M18.8114 55.6875L14.4389 61.0706L10.0664 55.6875H18.8114Z" fill="#C5C5C5"/>
</svg>
