<svg width="32" height="32" viewBox="0 0 32 32" fill="none" xmlns="http://www.w3.org/2000/svg">
<circle cx="16" cy="16" r="16" fill="#ED017F" fill-opacity="0.1"/>
<path d="M20 12.6667H22C22.1769 12.6667 22.3464 12.7369 22.4714 12.8619C22.5965 12.987 22.6667 13.1565 22.6667 13.3333V21.3333C22.6667 21.5101 22.5965 21.6797 22.4714 21.8047C22.3464 21.9298 22.1769 22 22 22H10C9.82323 22 9.65366 21.9298 9.52864 21.8047C9.40361 21.6797 9.33337 21.5101 9.33337 21.3333V10.6667C9.33337 10.4899 9.40361 10.3203 9.52864 10.1953C9.65366 10.0702 9.82323 10 10 10H20V12.6667ZM10.6667 14V20.6667H21.3334V14H10.6667ZM10.6667 11.3333V12.6667H18.6667V11.3333H10.6667ZM18 16.6667H20V18H18V16.6667Z" fill="#ED017F"/>
</svg>