<svg width="32" height="32" viewBox="0 0 32 32" fill="none" xmlns="http://www.w3.org/2000/svg">
<circle cx="16" cy="16" r="16" fill="#ED017F" fill-opacity="0.1"/>
<path opacity="0.3" fill-rule="evenodd" clip-rule="evenodd" d="M10.9064 10.583C10.3729 10.4401 9.82455 10.7567 9.68161 11.2901L8.1287 17.0857C7.98575 17.6192 8.30234 18.1675 8.8358 18.3104L20.4269 21.4163C20.9604 21.5592 21.5087 21.2426 21.6517 20.7092L23.2046 14.9136C23.3475 14.3801 23.0309 13.8318 22.4975 13.6889L10.9064 10.583ZM18.2424 16.6898C17.8613 18.1124 16.399 18.9566 14.9764 18.5755C13.5539 18.1943 12.7096 16.7321 13.0908 15.3095C13.472 13.8869 14.9342 13.0427 16.3568 13.4239C17.7794 13.805 18.6236 15.2673 18.2424 16.6898Z" fill="black"/>
<path fill-rule="evenodd" clip-rule="evenodd" d="M9.66663 12C9.11434 12 8.66663 12.4477 8.66663 13V19C8.66663 19.5523 9.11434 20 9.66663 20H21.6666C22.2189 20 22.6666 19.5523 22.6666 19V13C22.6666 12.4477 22.2189 12 21.6666 12H9.66663ZM18.3333 16C18.3333 17.4728 17.1394 18.6667 15.6666 18.6667C14.1939 18.6667 13 17.4728 13 16C13 14.5272 14.1939 13.3333 15.6666 13.3333C17.1394 13.3333 18.3333 14.5272 18.3333 16ZM15.6666 17.3333C16.403 17.3333 17 16.7364 17 16C17 15.2636 16.403 14.6667 15.6666 14.6667C14.9302 14.6667 14.3333 15.2636 14.3333 16C14.3333 16.7364 14.9302 17.3333 15.6666 17.3333Z" fill="#ED017F"/>
</svg>