<svg width="32" height="32" viewBox="0 0 32 32" fill="none" xmlns="http://www.w3.org/2000/svg">
<circle cx="16" cy="16" r="16" fill="#ED017F" fill-opacity="0.1"/>
<path fill-rule="evenodd" clip-rule="evenodd" d="M13.3334 12.106C13.3334 11.7432 13.7077 11.5012 14.0386 11.6501L22.6927 15.5444C23.0858 15.7213 23.0857 16.2795 22.6927 16.4563L14.0386 20.3507C13.7077 20.4996 13.3334 20.2576 13.3334 19.8947V16.7783L21.6314 16.0004L13.3334 15.2224V12.106Z" fill="#ED017F"/>
<path opacity="0.3" fill-rule="evenodd" clip-rule="evenodd" d="M10.6667 12C10.2985 12 10 12.2985 10 12.6667C10 13.0349 10.2985 13.3333 10.6667 13.3333H11.3333C11.7015 13.3333 12 13.0349 12 12.6667C12 12.2985 11.7015 12 11.3333 12H10.6667ZM8 16C8 15.6318 8.29848 15.3333 8.66667 15.3333H11.3333C11.7015 15.3333 12 15.6318 12 16C12 16.3682 11.7015 16.6667 11.3333 16.6667H8.66667C8.29848 16.6667 8 16.3682 8 16ZM10 19.3333C10 18.9651 10.2985 18.6667 10.6667 18.6667H11.3333C11.7015 18.6667 12 18.9651 12 19.3333C12 19.7015 11.7015 20 11.3333 20H10.6667C10.2985 20 10 19.7015 10 19.3333Z" fill="#ED017F"/>
</svg>