<svg width="20" height="20" viewBox="0 0 20 20" fill="none" xmlns="http://www.w3.org/2000/svg">
<circle cx="10" cy="10" r="10" fill="#F26822" fill-opacity="0.1"/>
<path opacity="0.3" d="M10 5.04006L7.17883 8.42549C6.94312 8.70834 6.52275 8.74655 6.23989 8.51085C5.95704 8.27514 5.91883 7.85476 6.15454 7.57191L9.48787 3.57191C9.7544 3.25207 10.2456 3.25207 10.5122 3.57191L13.8455 7.57191C14.0812 7.85476 14.043 8.27514 13.7601 8.51085C13.4773 8.74655 13.0569 8.70834 12.8212 8.42549L10 5.04006Z" fill="#F26822"/>
<path fill-rule="evenodd" clip-rule="evenodd" d="M4.52039 8C3.9681 8 3.52039 8.44772 3.52039 9V13C3.52039 14.6569 4.86353 16 6.52038 16H13.4795C15.1364 16 16.4795 14.6569 16.4795 13V9C16.4795 8.44772 16.0318 8 15.4795 8H4.52039ZM10 10C9.63184 10 9.33336 10.2985 9.33336 10.6667V13.3333C9.33336 13.7015 9.63184 14 10 14C10.3682 14 10.6667 13.7015 10.6667 13.3333V10.6667C10.6667 10.2985 10.3682 10 10 10ZM6.17177 10.9074C6.07647 10.5517 6.28753 10.1862 6.64317 10.0909C6.99882 9.99557 7.36438 10.2066 7.45967 10.5623L8.14985 13.1381C8.24515 13.4937 8.03409 13.8593 7.67845 13.9546C7.32281 14.0499 6.95725 13.8388 6.86195 13.4832L6.17177 10.9074ZM13.3569 10.0909C13.0012 9.99557 12.6357 10.2066 12.5404 10.5623L11.8502 13.1381C11.7549 13.4937 11.966 13.8593 12.3216 13.9546C12.6772 14.0499 13.0428 13.8388 13.1381 13.4832L13.8283 10.9074C13.9236 10.5517 13.7125 10.1862 13.3569 10.0909Z" fill="#F26822"/>
</svg>
